<?xml version="1.0" standalone="no"?>
<!DOCTYPE svg PUBLIC "-//W3C//DTD SVG 1.1//EN" "http://www.w3.org/Graphics/SVG/1.1/DTD/svg11.dtd" >
<svg xmlns="http://www.w3.org/2000/svg">
<metadata></metadata>
<defs>
<font id="SSNeuxTeuxDeux" >
<font-face font-family="SS Neux TeuxDeux Regular" units-per-em="2048" ascent="2560" descent="-512" />
<missing-glyphhoriz-adv-x="2048"  d="M0 2048h2048v-2048h-2048v2048zM1611 1792h-1174l587 -587zM256 1611v-1174l587 587zM437 256h1174l-587 587zM1792 437v1174l-587 -587z" />
<glyph  horiz-adv-x="2048" d="M0 2048h2048v-2048h-2048v2048zM1611 1792h-1174l587 -587zM256 1611v-1174l587 587zM437 256h1174l-587 587zM1792 437v1174l-587 -587z" />
<glyph unicode="+" horiz-adv-x="2048" d="M2048 1260v-472h-788v-788h-472v788h-788v472h788v788h472v-788h788z" />
<glyph unicode="&#x2302;" horiz-adv-x="2048" d="M1024 1969l1024 -1024h-315v-945h-473v788h-472v-788h-473v945h-315z" />
<glyph unicode="&#x2421;" horiz-adv-x="2048" d="M1920 1579l-555 -555l555 -555l-341 -341l-555 555l-555 -555l-341 341l555 555l-555 555l341 341l555 -555l555 555z" />
<glyph unicode="&#x25be;" horiz-adv-x="2048" d="M0 1593h2048l-1024 -1252z" />
<glyph unicode="&#x2665;" horiz-adv-x="2048" d="M1907 1758q82 -82 116.5 -189.5t20.5 -228t-85.5 -253.5t-195.5 -257l-739 -740l-740 740q-164 165 -234 341t-44 326t135 260q107 106 249.5 144t285.5 0t249 -144q61 -61 99 -134q37 72 99 135q107 106 249.5 144t285.5 0t249 -144z" />
<glyph unicode="&#x270e;" horiz-adv-x="2048" d="M2010 1808q38 -38 38 -91t-38 -91l-218 -218l-384 384l218 218q38 38 91 38t91 -38zM0 0l213 597l1067 1067l384 -384l-1067 -1067z" />
<glyph unicode="&#x2713;" horiz-adv-x="2048" d="M0 981l341 342l427 -427l939 939l341 -342l-1280 -1280z" />
<glyph unicode="&#x27a1;" horiz-adv-x="1975" d="M951 2048l1024 -1024l-1024 -1024h-951l1024 1024l-1024 1024h951z" />
<glyph unicode="&#x2abb;" horiz-adv-x="3277" d="M1434 1024l1024 1024h819l-1024 -1024l1024 -1024h-819zM0 1024l1024 1024h819l-1024 -1024l1024 -1024h-819z" />
<glyph unicode="&#x2abc;" horiz-adv-x="3277" d="M819 2048l1024 -1024l-1024 -1024h-819l1024 1024l-1024 1024h819zM2253 2048l1024 -1024l-1024 -1024h-819l1024 1024l-1024 1024h819z" />
<glyph unicode="&#x2b05;" horiz-adv-x="1975" d="M0 1024l1024 1024h951l-1024 -1024l1024 -1024h-951z" />
<glyph unicode="&#x1f4c5;" horiz-adv-x="2363" d="M0 2048h2363v-2048h-2363v2048zM315 315h1733v1103h-1733v-1103zM1890 1103h-157v157h157v-157zM1260 1103h-157v157h157v-157zM1575 1103h-157v157h157v-157zM945 788h-157v157h157v-157zM1575 788h-157v157h157v-157zM630 788h-157v157h157v-157zM1103 788v157h157
v-157h-157zM1733 788v157h157v-157h-157zM630 473h-157v157h157v-157zM1890 473h-157v157h157v-157zM1575 473h-157v157h157v-157zM1260 473h-157v157h157v-157zM945 473h-157v157h157v-157z" />
<glyph unicode="&#x1f501;" horiz-adv-x="2048" d="M1170 1073v341h-390q-182 0 -310.5 -128.5t-128.5 -310.5q0 -92 37 -175l-251 -251q-127 194 -127 426q0 212 104.5 391.5t284 284t391.5 104.5h390v342l512 -512zM878 975v-341h390q182 0 310.5 128.5t128.5 310.5q0 92 -37 175l251 251q127 -194 127 -426
q0 -212 -104.5 -391.5t-284 -284t-391.5 -104.5h-390v-342l-512 512z" />
<glyph unicode="&#x1f512;" d="M1792 1024v-896q0 -53 -37.5 -90.5t-90.5 -37.5h-1280q-53 0 -90.5 37.5t-37.5 90.5v896q0 53 37.5 90.5t90.5 37.5h128v384q0 104 40.5 198.5t109.5 163.5t163.5 109.5t198.5 40.5t198.5 -40.5t163.5 -109.5t109.5 -163.5t40.5 -198.5v-384h128q53 0 90.5 -37.5
t37.5 -90.5zM768 1152h512v384q0 106 -75 181t-181 75t-181 -75t-75 -181v-384z" />
<glyph   />
<glyph  horiz-adv-x="682"  />
<glyph   />
<glyph unicode="&#xd;"  />
<glyph unicode=" " horiz-adv-x="512"  />
<glyph unicode="A" horiz-adv-x="1378" d="M1346 0h-218l-145 430h-596l-154 -430h-204l555 1482h230zM907 608l-218 656l-238 -656h456z" />
<glyph unicode="B" horiz-adv-x="1378" d="M1290 444q0 -133 -64.5 -235.5t-168.5 -155.5t-228 -53h-682v1482h671q78 0 148.5 -24.5t126 -70.5t89 -118.5t35.5 -162.5q0 -100 -50.5 -187t-142.5 -121q118 -41 192 -134t74 -220zM1019 1065q0 121 -63 180t-220 63h-385v-456h390q139 0 206.5 61t71.5 152zM1090 417
q0 66 -14 112t-50.5 83.5t-105 56t-172.5 20.5h-397v-521h463q69 0 123.5 23t86 60.5t48 79.5t18.5 86z" />
<glyph unicode="C" horiz-adv-x="1491" d="M1406 544q-14 -120 -63.5 -225.5t-128.5 -186t-192.5 -127t-246.5 -46.5q-126 0 -231.5 34t-179 93.5t-129 136t-87 167.5t-47 181t-15.5 182q0 116 26.5 225.5t82.5 206.5t135 170.5t191 118.5t243 49q70 0 140.5 -12t152.5 -46t147.5 -86t116.5 -141t68 -202h-195
q-29 147 -137.5 225t-263.5 78q-131 0 -228 -46.5t-154 -129t-85 -184.5t-31 -226q2 -92 19 -177.5t53.5 -166t88 -140t128 -95.5t169.5 -36q193 0 310 107t145 299h198z" />
<glyph unicode="D" horiz-adv-x="1491" d="M1387 793q0 -125 -24.5 -240.5t-74 -215t-119.5 -174t-166.5 -118t-209.5 -45.5h-629v1482h622q78 0 156.5 -22t157.5 -74.5t140.5 -129.5t102 -197t44.5 -266zM1181 777q0 85 -14 160.5t-46 144t-80 118t-120.5 79t-163.5 29.5h-389v-1140h414q119 0 211 81t140 219
t48 309z" />
<glyph unicode="E" horiz-adv-x="1378" d="M1269 0h-1095v1482h1082v-181h-880v-451h812v-177h-812v-494h893v-179z" />
<glyph unicode="F" horiz-adv-x="1258" d="M1199 1301h-823v-451h726v-177h-726v-673h-202v1482h1025v-181z" />
<glyph unicode="G" horiz-adv-x="1600" d="M1448 0h-127l-48 197q-69 -99 -199.5 -162.5t-287.5 -68.5q-181 0 -316 59.5t-215.5 167.5t-119 247.5t-38.5 312.5q0 112 27 219.5t84 205.5t138 171.5t197.5 118t254.5 45.5q113 0 217.5 -31t191 -90t144.5 -152t74 -209h-192q-27 109 -95 180t-154.5 99.5t-194.5 28.5
q-103 0 -192.5 -41t-154.5 -116.5t-102.5 -189t-37.5 -251.5q0 -296 134.5 -455.5t352.5 -159.5q173 0 310 107q92 74 126 158.5t39 225.5h-461v172h645v-789z" />
<glyph unicode="H" horiz-adv-x="1491" d="M1335 0h-202v689h-775v-689h-201v1482h201v-615h775v615h202v-1482z" />
<glyph unicode="I" horiz-adv-x="571" d="M387 0h-201v1482h201v-1482z" />
<glyph unicode="J" horiz-adv-x="1031" d="M884 399q0 -117 -33.5 -203.5t-94 -136t-135 -74t-165.5 -26.5q-93 0 -167.5 23.5t-121 60.5t-77.5 87t-43.5 99.5t-12.5 101.5v144h186v-105q0 -123 55 -181t169 -58q122 0 178 61.5t58 194.5v1095h204v-1083z" />
<glyph unicode="K" horiz-adv-x="1378" d="M1366 0h-260l-519 741l-233 -220v-521h-202v1482h202v-722l720 722h275l-617 -598z" />
<glyph unicode="L" horiz-adv-x="1149" d="M1106 0h-954v1482h202v-1303h752v-179z" />
<glyph unicode="M" horiz-adv-x="1715" d="M1570 0h-197v1244l-414 -1244h-199l-423 1242v-1242h-190v1482h288l427 -1256l423 1256h285v-1482z" />
<glyph unicode="N" horiz-adv-x="1491" d="M1335 0h-229l-755 1194v-1194h-194v1482h237l746 -1199v1199h195v-1482z" />
<glyph unicode="O" horiz-adv-x="1600" d="M1523 741q0 -55 -5.5 -111.5t-24 -134.5t-48.5 -146.5t-85.5 -139.5t-128.5 -121.5t-182.5 -83.5t-243.5 -35q-145 0 -265.5 43t-203.5 116.5t-140 172.5t-83.5 210t-26.5 230q0 124 27 236t84.5 209.5t141 169t203 113.5t263.5 44q157 0 283.5 -49.5t206 -127.5
t132.5 -182t74.5 -206.5t21.5 -206.5zM1321 741q0 265 -137 427.5t-379 166.5q-230 0 -372.5 -161.5t-142.5 -432.5q0 -267 138.5 -428.5t376.5 -165.5q242 0 379 163t137 431z" />
<glyph unicode="P" horiz-adv-x="1378" d="M1280 1065q0 -84 -23.5 -158.5t-73 -138t-137.5 -102t-205 -41.5h-465v-625h-202v1482h667q188 0 311 -109.5t128 -307.5zM1074 1065q0 243 -292 243h-406v-515h399q296 0 299 272z" />
<glyph unicode="Q" horiz-adv-x="1600" d="M1523 741q0 -355 -217 -571l202 -156l-97 -121l-228 178q-156 -102 -380 -102q-145 0 -266 43t-204 116.5t-141 172.5t-84.5 210t-26.5 230q0 124 27 236t85 209.5t141.5 169t203.5 113.5t265 44q113 0 210.5 -25.5t170 -70t130.5 -105.5t96.5 -129.5t64.5 -145t37 -150
t11 -146.5zM1316 741q0 265 -135.5 427.5t-377.5 166.5q-232 0 -373.5 -161t-141.5 -433q0 -268 137.5 -429t377.5 -165q120 0 216 48l-155 116l103 126l189 -145q160 166 160 449z" />
<glyph unicode="R" horiz-adv-x="1491" d="M1387 0h-226q-26 57 -37.5 150.5t-15 187t-6.5 113.5q-26 179 -243 181h-503v-632h-202v1482h710q71 0 136.5 -14.5t125 -46.5t104 -79t71.5 -115.5t29 -152.5q0 -231 -216 -345q80 -25 127 -87t56 -153q6 -57 12 -157.5t14.5 -165.5t25.5 -107q15 -39 38 -59zM1126 1054
q0 112 -58.5 181t-186.5 73h-525v-503h508q112 0 187 69.5t75 179.5z" />
<glyph unicode="S" horiz-adv-x="1378" d="M1276 415q0 -145 -76.5 -247.5t-205 -150.5t-298.5 -48q-285 0 -439 127.5t-155 392.5h186q0 -78 24 -139t62.5 -99t93.5 -63t109.5 -35.5t118.5 -12.5q59 0 112.5 7.5t104.5 25.5t88 45.5t59.5 71.5t22.5 100q0 128 -91 175.5t-389 113.5q-35 8 -54 12
q-67 15 -119.5 32.5t-106.5 47.5t-90.5 68t-60 94.5t-25.5 125.5q0 73 18.5 138.5t58.5 124t99 100.5t145.5 66.5t191.5 24.5q112 0 202.5 -21t148 -51t101.5 -77.5t65.5 -84.5t36 -89.5t17 -75.5t5.5 -59q1 -8 1 -12h-185q0 63 -21.5 114t-57.5 84.5t-85 56.5t-100.5 33.5
t-107.5 12.5q-65 0 -120 -11.5t-106.5 -39t-81.5 -81.5t-30 -129q0 -141 179 -181l422 -97q169 -38 251 -133.5t82 -256.5z" />
<glyph unicode="T" horiz-adv-x="1258" d="M1233 1301h-504v-1301h-201v1301h-499v181h1204v-181z" />
<glyph unicode="U" horiz-adv-x="1491" d="M1330 487q0 -84 -22 -158.5t-69 -139.5t-116 -112.5t-169 -75.5t-222 -30q-283 0 -425 131t-146 376v1004h202v-967q0 -171 96 -269.5t273 -98.5q180 0 285.5 94.5t110.5 268.5v972h202v-995z" />
<glyph unicode="V" horiz-adv-x="1378" d="M1332 1482l-539 -1482h-213l-539 1482h233l419 -1266l438 1266h201z" />
<glyph unicode="W" horiz-adv-x="1945" d="M1915 1482l-392 -1482h-209l-338 1228l-346 -1228h-213l-383 1482h215l274 -1208l339 1208h217l339 -1208l273 1208h224z" />
<glyph unicode="X" horiz-adv-x="1378" d="M1335 0h-250l-396 608l-411 -608h-240l529 760l-499 722h252l376 -568l378 568h240l-496 -725z" />
<glyph unicode="Y" horiz-adv-x="1378" d="M1344 1482l-558 -891v-591h-199v591l-556 891h243l422 -712l425 712h223z" />
<glyph unicode="Z" horiz-adv-x="1258" d="M1211 0h-1163v164l906 1139h-840v179h1097v-174l-912 -1127h912v-181z" />
<glyph unicode="a" horiz-adv-x="1149" d="M1095 2v-2q-57 -21 -119 -21q-82 0 -127 41t-46 120q-157 -167 -390 -174q-152 0 -247 89.5t-95 214.5q0 54 11.5 98.5t34 77.5t49.5 58.5t66 44t74 31.5t83.5 23t84.5 16.5t86 14.5t81 14q82 15 117 51t35 80q0 83 -63.5 132.5t-185.5 49.5q-111 0 -177 -52.5
t-70 -160.5h-168q0 70 26 132t77.5 113t137.5 81.5t197 31.5q79 0 150 -19t130 -56.5t94 -100t35 -141.5v-578q0 -60 22.5 -82t96.5 4v-131zM789 358v195q-29 -19 -84.5 -34t-111.5 -24t-117.5 -25.5t-108.5 -37.5t-77.5 -61.5t-30.5 -96.5q0 -79 52 -119.5t140 -40.5
q70 0 146 27.5t134 86t58 130.5z" />
<glyph unicode="b" horiz-adv-x="1149" d="M1090 571q3 -85 -10.5 -167.5t-48.5 -162.5t-88.5 -140.5t-138.5 -97.5t-192 -37q-103 0 -187 43t-130 124l-14 -133h-165v1482h186v-539q120 158 330 163q197 0 324 -149t134 -386zM900 539q0 198 -79.5 302t-222.5 104q-82 0 -143.5 -38.5t-95 -101t-49 -129
t-15.5 -134.5q0 -406 313 -416q140 0 216 113t76 300z" />
<glyph unicode="c" horiz-adv-x="1031" d="M993 380q-10 -90 -42 -162.5t-77 -118.5t-102.5 -77t-115.5 -43.5t-119 -12.5q-204 0 -341 159.5t-137 413.5q0 141 39.5 252t107.5 179t154 103.5t184 35.5q62 0 119.5 -11.5t115 -40t101 -72t74.5 -112.5t39 -156h-173q-11 107 -84.5 167.5t-184.5 60.5
q-63 0 -114.5 -21t-94 -66.5t-66.5 -126.5t-24 -192q0 -170 84.5 -288t214.5 -118q223 0 267 247h175z" />
<glyph unicode="d" horiz-adv-x="1149" d="M64 571q7 237 134 386t325 149q113 -3 191.5 -44t137.5 -119v539h186v-1482h-164v152q-49 -83 -140.5 -134.5t-191.5 -51.5q-106 0 -191.5 37t-139 97.5t-88.5 140.5t-48.5 162.5t-10.5 167.5zM254 539q0 -187 76 -300t216 -113q313 10 313 416q0 54 -9 107t-31 107.5
t-55.5 95.5t-87.5 67t-121 26q-142 0 -221.5 -104t-79.5 -302z" />
<glyph unicode="e" horiz-adv-x="1149" d="M1076 478h-806q0 -151 92 -248t227 -97q68 0 125.5 22t91.5 54.5t52.5 66.5t18.5 61h184q-29 -172 -160 -270t-321 -98q-152 0 -267 73.5t-173.5 195t-60.5 270.5q0 271 139.5 437t365.5 166q240 0 369.5 -174t122.5 -459zM886 625q0 144 -87.5 234.5t-211.5 90.5
q-129 0 -220 -96t-97 -229h616z" />
<glyph unicode="f" horiz-adv-x="571" d="M539 1496v-150q-31 5 -76 5q-55 0 -77.5 -25t-22.5 -84v-163h176v-165h-176v-914h-184v914h-150v165h150v199q0 98 73.5 164t191.5 66q51 0 95 -12z" />
<glyph unicode="g" horiz-adv-x="1230" d="M1088 48q0 -263 -128.5 -392t-358.5 -129q-39 0 -78.5 5t-89.5 17t-92 37t-78.5 60.5t-58.5 92.5t-23 128h180q0 -80 68.5 -125.5t159.5 -45.5q150 0 234 83.5t84 254.5v63q-66 -70 -146.5 -99t-182.5 -29q-67 0 -134 22.5t-128 68.5t-108.5 109.5t-76.5 152t-31 188.5
q0 278 139.5 437t363.5 159q98 0 180 -42t124 -110v131h181v-1037zM907 537q0 180 -82.5 283.5t-228.5 103.5q-56 0 -109 -23t-97 -67t-71 -117t-27 -164q0 -106 27 -189.5t72 -132.5t99 -74.5t113 -25.5q132 0 216 107.5t88 298.5z" />
<glyph unicode="h" horiz-adv-x="1149" d="M1014 0h-185v705q0 118 -50 179t-162 61q-61 0 -114 -21t-96.5 -62.5t-68.5 -112t-25 -162.5v-587h-184v1482h184v-548q56 85 148.5 128t186.5 47q55 0 104.5 -10.5t98.5 -38t84 -70.5t57 -113t22 -160v-717z" />
<glyph unicode="i" horiz-adv-x="460" d="M318 1273h-185v204h185v-204zM318 0h-185v1079h185v-1079z" />
<glyph unicode="j" horiz-adv-x="544" d="M406 -186q0 -106 -70.5 -175t-199.5 -69q-59 0 -93 7v157q42 -10 83 -10q52 0 73 29t21 102v1224h186v-1265zM406 1273h-186v209h186v-209z" />
<glyph unicode="k" horiz-adv-x="1031" d="M1031 0h-231l-356 528l-131 -129v-399h-184v1482h184v-862l462 459h232l-429 -415z" />
<glyph unicode="l" horiz-adv-x="460" d="M320 0h-187v1482h187v-1482z" />
<glyph unicode="m" horiz-adv-x="1715" d="M1589 0h-186v696q0 249 -199 249q-109 0 -178 -78t-74 -212v-655h-184v743q0 85 -42.5 143.5t-131.5 58.5q-53 0 -100 -18.5t-87.5 -58.5t-65 -112t-26.5 -169v-587h-184v1079h171v-152q57 88 144 133.5t186 45.5q114 0 180.5 -45.5t109.5 -126.5q46 72 131 122t198 50
q43 0 84.5 -8.5t89 -33.5t82.5 -63.5t58.5 -105t23.5 -152.5v-743z" />
<glyph unicode="n" horiz-adv-x="1149" d="M1014 0h-185v675q0 128 -47.5 199t-164.5 71q-131 0 -217.5 -88.5t-86.5 -241.5v-615h-184v1079h175v-157q14 24 43 52.5t72 59.5t104 51.5t125 20.5q80 0 145.5 -22.5t115.5 -68t77.5 -121.5t27.5 -177v-717z" />
<glyph unicode="o" horiz-adv-x="1149" d="M1083 539q0 -151 -58.5 -277.5t-175 -207.5t-271.5 -85q-117 0 -214 47t-160 126t-97 181.5t-34 215.5q0 155 58 283t174.5 207.5t272.5 79.5q155 0 271.5 -79.5t175 -207.5t58.5 -283zM893 539q1 68 -17 136t-54 130t-99.5 101.5t-144.5 40.5q-65 0 -119.5 -26t-90 -68
t-60 -96.5t-35 -109t-10.5 -108.5q0 -81 18 -152.5t54 -130t98.5 -93t144.5 -34.5q66 0 119 23t88 61.5t59 92t35.5 111t13.5 122.5z" />
<glyph unicode="p" horiz-adv-x="1149" d="M1092 508q-7 -237 -134 -387t-326 -150q-209 8 -328 165v-564h-188v1507h167v-152q48 82 139.5 133t192.5 51q106 0 191.5 -37t139 -97t88.5 -140t48 -162t10 -167zM902 539q0 188 -75.5 300.5t-216.5 112.5q-160 -5 -236.5 -113t-76.5 -302q0 -69 15.5 -135.5t48.5 -129
t95 -101t145 -38.5q143 0 222 103.5t79 302.5z" />
<glyph unicode="q" horiz-adv-x="1149" d="M45 508q0 86 14 166.5t48.5 161.5t87.5 140.5t137.5 97t190.5 37.5q103 0 185.5 -42.5t129.5 -123.5l17 134h167v-1507h-186v564q-62 -78 -140.5 -119.5t-189.5 -45.5q-201 0 -328.5 144t-132.5 393zM235 539q0 -199 80 -302.5t224 -103.5q66 0 119.5 26t87 67t55.5 96
t31 108t9 107q0 194 -76.5 302t-236.5 113q-141 0 -217 -112.5t-76 -300.5z" />
<glyph unicode="r" horiz-adv-x="684" d="M610 914q-155 0 -251 -71t-96 -197v-646h-184v1079h177v-184q95 207 354 207v-188z" />
<glyph unicode="s" horiz-adv-x="1031" d="M961 326q0 -155 -113.5 -257.5t-310.5 -102.5q-97 0 -176 21t-142.5 64.5t-102 118.5t-45.5 177h178q0 -221 288 -221q101 0 173 43.5t72 125.5q0 44 -23 69.5t-102 54.5t-249 70q-48 12 -81 22.5t-78 33t-72.5 49.5t-47.5 71t-20 99q0 164 114.5 254.5t293.5 90.5
q100 0 176.5 -26t119 -63t70 -86.5t36 -87.5t10.5 -76h-176q0 88 -64.5 134t-189.5 46q-15 0 -30 -1t-42 -5.5t-49 -14.5t-44.5 -26t-35.5 -43t-15 -62q0 -66 59.5 -94.5t261.5 -77.5q29 -7 44 -11q70 -19 119 -39t96 -53t72 -82t26 -115z" />
<glyph unicode="t" horiz-adv-x="571" d="M539 129v-152q-54 -13 -95 -13q-118 0 -191.5 66.5t-73.5 164.5v719h-141v165h141v303h184v-303h176v-165h-176v-681q0 -60 23 -86t77 -26q35 0 76 8z" />
<glyph unicode="u" horiz-adv-x="1149" d="M116 1079h188v-675q0 -62 10 -108.5t33 -84.5t65.5 -58t102.5 -20q130 0 217.5 89t87.5 241v616h184v-1079h-177v157q-15 -24 -44 -53t-72 -60t-104 -52t-125 -21q-166 0 -266 96.5t-100 293.5v718z" />
<glyph unicode="v" horiz-adv-x="1031" d="M990 1079l-410 -1079h-195l-392 1079h206l295 -884l302 884h194z" />
<glyph unicode="w" horiz-adv-x="1491" d="M1461 1079l-312 -1079h-190l-216 834l-215 -834h-191l-308 1079h197l204 -851l221 851h201l213 -851l215 851h181z" />
<glyph unicode="x" horiz-adv-x="1031" d="M1009 0h-232l-267 406l-261 -406h-228l380 555l-360 524h233l249 -383l252 383h218l-363 -526z" />
<glyph unicode="y" horiz-adv-x="1031" d="M1009 1079q-165 -471 -314.5 -865.5t-184.5 -465.5q-66 -133 -148.5 -171.5t-235.5 -4.5v167q35 -13 63.5 -18.5t60 -3t58 22t46.5 56.5l74 170l-405 1113h205l295 -882l291 882h195z" />
<glyph unicode="z" horiz-adv-x="1031" d="M967 0h-903v140l648 787h-598v152h831v-150l-643 -782h665v-147z" />
</font>
</defs>
</svg>
